<?xml version="1.0" encoding="utf-8"?>
<!-- Generator: Adobe Illustrator 28.0.0, SVG Export Plug-In . SVG Version: 6.00 Build 0)  -->
<svg version="1.1" id="Layer_1" xmlns="http://www.w3.org/2000/svg" xmlns:xlink="http://www.w3.org/1999/xlink" x="0px" y="0px"
	 viewBox="0 0 309.7 290.3" style="enable-background:new 0 0 309.7 290.3;" xml:space="preserve">
<g>
	<g>
		<path d="M240.9,197l-45.3-17.1c-7.1-2.7-11.8-9.5-11.8-17v-8.6c11.7-8.9,20.7-22.7,26.9-38.2
			c6.9,0,13-4.7,14.6-11.4l3.9-15.4c0.7-2.9,0.1-5.9-1.7-8.2c-1.8-2.3-4.6-3.7-7.5-3.7c0.4-3.9,0.6-7.8,0.6-11.6
			c0-42.4-23.4-65.8-65.8-65.8S89,23.4,89,65.8c0,3.8,0.3,7.7,0.6,11.6c-2.9,0-5.7,1.4-7.5,3.7s-2.5,5.3-1.7,8.2l3.9,15.4
			c1.7,6.7,7.7,11.4,14.6,11.4c6.2,15.5,15.3,29.3,26.9,38.2v8.6c0,7.6-4.7,14.4-11.8,17L68.7,197c-18.1,6.8-30,24.1-30,43.4v30.5
			c0,10.7,8.7,19.4,19.4,19.4h193.5c10.7,0,19.4-8.7,19.4-19.4v-30.5C270.9,221.1,259,203.8,240.9,197z"/>
		<path d="M93.8,147.7l-17.4-6.4v-14.5c-5.2-4.5-9.1-10.4-10.9-17.5l-3.8-15.4c-2.2-8.7-0.3-17.8,5.2-24.8
			c0.9-1.1,1.8-2.2,2.8-3.2c0-0.1,0-0.2,0-0.3c0-15.6,2.8-29.2,7.9-40.8c-6.8-3.6-15-5.6-24.9-5.6c-29.1,0-45.2,16.1-45.2,45.2
			c0,1,0.1,2.1,0.1,3.1c-4.2,0-7.6,3.4-7.6,7.6v8.1c0,7.4,6,13.3,13.3,13.3c3.6,9.9,8.9,19,15.7,25.6V141l-13.7,5.1
			C6.1,149.5,0,158.3,0,168.1v44.7c0,10.7,8.7,19.4,19.3,19.4h0.6c3-23.8,19-44.7,41.9-53.3l43.8-16.5
			C101.4,158.1,97.4,153.1,93.8,147.7z"/>
		<path d="M215.9,147.7l17.4-6.4v-14.5c5.2-4.5,9.1-10.4,10.9-17.5l3.8-15.4c2.2-8.7,0.3-17.8-5.2-24.8
			c-0.9-1.1-1.8-2.2-2.8-3.2c0-0.1,0-0.2,0-0.3c0-15.6-2.8-29.2-7.9-40.8c6.8-3.6,15-5.6,24.9-5.6c29.1,0,45.2,16.1,45.2,45.2
			c0,1-0.1,2.1-0.1,3.1c4.2,0,7.6,3.4,7.6,7.6v8.1c0,7.4-6,13.3-13.3,13.3c-3.6,9.9-8.9,19-15.7,25.6V141l13.7,5.1
			c9.2,3.4,15.3,12.2,15.3,22v44.7c0,10.7-8.7,19.4-19.3,19.4h-0.6c-3-23.8-19-44.7-41.9-53.3l-43.8-16.5
			C208.2,158.1,212.2,153.1,215.9,147.7z"/>
	</g>
</g>
</svg>
