<?xml version="1.0" encoding="UTF-8"?>
<svg width="512px" height="512px" viewBox="0 0 512 512" version="1.1" xmlns="http://www.w3.org/2000/svg" xmlns:xlink="http://www.w3.org/1999/xlink">
    <!-- Generator: Sketch 50.2 (55047) - http://www.bohemiancoding.com/sketch -->
    <title>icon</title>
    <desc>Created with Sketch.</desc>
    <defs></defs>
    <g id="icon" stroke="none" stroke-width="1" fill="none" fill-rule="evenodd">
        <g>
            <circle id="Oval-Copy-2" fill="#FF4AB6" cx="256" cy="256" r="256"></circle>
            <g id="Group" transform="translate(125.000000, 115.000000)" fill="#FFFFFF" fill-rule="nonzero">
                <path d="M52.4721429,155.301429 C61.0328571,159.027857 70.6007143,161.142857 80.5714286,161.142857 C90.5421429,161.142857 100.11,159.027857 108.670714,155.301429 C121.864286,149.560714 132.842143,139.892143 140.395714,127.907143 C144.122143,122.065714 146.942143,115.62 148.654286,108.771429 C150.265714,103.030714 151.071429,96.8871429 151.071429,90.6428571 C151.071429,74.5285714 145.632857,59.6228571 136.467857,47.7385714 C132.237857,42.1992857 127.101429,37.2642857 121.461429,33.2357143 C109.879286,24.9771429 95.7792857,20.1428571 80.5714286,20.1428571 C41.6957143,20.1428571 10.0714286,51.7671429 10.0714286,90.6428571 C10.0714286,119.547857 27.495,144.424286 52.4721429,155.301429 Z" id="Shape"></path>
                <path d="M135.36,194.177143 C130.525714,189.342857 125.187857,185.213571 119.447143,181.89 C116.022857,179.875714 112.497857,178.163571 108.872143,176.753571 L108.771429,176.753571 C100.009286,173.127857 90.4414286,171.214286 80.5714286,171.214286 C70.7014286,171.214286 61.1335714,173.127857 52.3714286,176.753571 L52.2707143,176.753571 C21.7542857,188.94 0,220.161429 0,256.821429 L0,271.928571 C0,277.467857 4.53214286,282 10.0714286,282 L38.4728571,282 L122.67,282 L151.071429,282 C156.610714,282 161.142857,277.467857 161.142857,271.928571 L161.142857,261.857143 L161.142857,256.821429 C161.142857,251.685 160.74,246.649286 159.934286,241.714286 C156.711429,223.082143 147.949286,206.565 135.36,194.177143 Z" id="Shape"></path>
                <path d="M149.258571,31.6242857 C162.955714,47.5371429 171.214286,68.0828571 171.214286,90.6428571 C171.214286,100.412143 169.602857,109.879286 166.682143,118.742143 C164.667857,125.187857 161.847857,131.331429 158.322857,137.072143 C165.675,139.690714 173.43,141 181.285714,141 C220.161429,141 251.785714,109.375714 251.785714,70.5 C251.785714,31.6242857 220.161429,0 181.285714,0 C163.660714,0 147.143571,6.54642857 134.554286,17.8264286 C139.992857,21.9557143 144.927857,26.4878571 149.258571,31.6242857 Z" id="Shape"></path>
                <path d="M181.285714,151.071429 C164.164286,151.071429 147.747857,156.711429 134.151429,167.286429 C139.992857,171.214286 145.330714,175.645714 150.265714,180.580714 C166.077857,196.493571 176.955,217.845 180.177857,241.714286 C180.983571,246.649286 181.285714,251.685 181.285714,256.821429 L181.285714,261.857143 L251.785714,261.857143 C257.325,261.857143 261.857143,257.325 261.857143,251.785714 L261.857143,236.678571 C261.857143,189.443571 225.700714,151.071429 181.285714,151.071429 Z" id="Shape"></path>
            </g>
        </g>
    </g>
</svg>